# xmcd
#
# Track frame offsets:
#	150
#	14025
#	28514
#	42464
#	55707
#	69767
#	83511
#	95216
#	108566
#	122437
#
# Disc length: 1792 seconds
#
# Revision: 0
# Processed by: cddbd v1.5.2PL0 Copyright (c) Steve Scherf et al.
# Submitted via: EasyCDDAExtractor 16.0.6.1
#
DISCID=7b06fe0a
DTITLE=Συλλογικός δίσκος - Ιστορία ρεμπέτικου και λαϊκού 01-1
DYEAR=2007
DGENRE=Ποικίλη
TTITLE0=Βιδάλης Γιώργος - Σάλα, σάλα [παραδ. Μ. Ασίας]
TTITLE1=Βιδάλης Γιώργος - Μανάκι μου [παραδ. Μ. Ασίας]
TTITLE2=Βιδάλης Γιώργος - Τι σε μέλλει εσένανε [παραδ. Μ. Ασίας]
TTITLE3=Μαρσέλος Κώστας ή Νούρος - Τζιβαέρι [Σ. Χρυσίνης/Σ. Παγιουμτζής-Κ. Νού
TTITLE3=ρος]
TTITLE4=Διαμαντίδης Αντώνης ή Νταλγκάς - Μόρτισσα [Παν. Τούντας]
TTITLE5=Διαμαντίδης Αντώνης ή Νταλγκάς - Τα μάτια σου με κάψανε [Παν. Τούντα]
TTITLE6=Βιδάλης Γιώργος - Αλανιάρα [Παν. Τούντα]
TTITLE7=Καλλίνικος Δημήτρης ή Αραπάκης - Αρμενοπούλα [Παν. Τούντα]
TTITLE8=Διαμαντίδης Αντώνης ή Νταλγκάς - Στους απάνω μαχαλάδες [Δημ. Κυριαζόπο
TTITLE8=υλος]
TTITLE9=Βιδάλης Γιώργος - Το χασίσι πού πουλιέται [παραδοσιακό]
EXTD=
EXTT0=
EXTT1=
EXTT2=
EXTT3=
EXTT4=
EXTT5=
EXTT6=
EXTT7=
EXTT8=
EXTT9=
PLAYORDER=
